<svg width="305" height="256" viewBox="0 0 305 256" fill="none" xmlns="http://www.w3.org/2000/svg">
<g filter="url(#filter0_d_4113_1239)">
<path d="M4 190.555L94.2457 132.629C94.2457 132.629 117.214 120.733 121.106 94.3777C124.998 68.0153 127.131 64.0036 127.131 64.0036C127.131 64.0036 135.792 29.1062 165.913 12.9195C196.035 -3.26724 220.392 -2.64288 241.228 6.01836C241.228 6.01836 225.161 18.3195 219.887 31.8759C219.887 31.8759 171.938 24.9748 159.511 76.1851C147.083 127.395 158.003 124.134 120.601 162.293L60.856 201.454C60.856 201.441 37.2634 205.519 4 190.555Z" fill="white"/>
<path d="M106.547 228.806C106.547 228.806 122.727 222.622 137.751 212.786C149.973 204.782 163.111 182.132 163.111 182.132L173.578 158.513C173.578 158.513 184.877 135.419 213.245 133.911H228.057C228.057 133.911 290.06 127.382 262.702 57.8462C262.702 57.8462 277.261 55.8403 283.285 36.2595C283.285 36.2595 310.896 70.3997 296.589 112.072C282.282 153.744 248.388 163.282 248.388 163.282C248.388 163.282 237.847 167.281 220.777 166.537C203.707 165.793 197.178 193.909 197.178 193.909C197.178 193.909 190.901 230.812 149.481 232.818C149.474 232.825 116.085 233.323 106.547 228.806Z" fill="white"/>
<path d="M122.614 176.587C122.614 176.587 145.21 160.772 160.015 129.142C160.015 129.142 164.286 117.592 167.548 105.045C170.809 92.4915 166.731 78.935 181.323 60.1114C195.916 41.2812 219.515 46.3026 219.515 46.3026C219.515 46.3026 253.908 53.5823 255.415 82.9535C256.923 112.325 238.598 117.851 238.598 117.851C238.598 117.851 238.598 118.854 226.297 120.109C213.995 121.364 207.466 116.595 185.627 126.386C185.627 126.379 146.213 168.556 122.614 176.587Z" fill="white"/>
<path d="M53.8287 247.882C53.8287 247.882 62.8686 222.529 92.9903 206.961C123.112 191.398 143.948 173.823 143.948 173.823L161.018 156.753C161.018 156.753 155.499 184.118 127.376 202.318C127.383 202.318 62.6162 237.089 53.8287 247.882Z" fill="white"/>
<path d="M255.502 47.5179C264.485 47.5179 271.768 40.2352 271.768 31.2515C271.768 22.2678 264.485 14.9851 255.502 14.9851C246.518 14.9851 239.235 22.2678 239.235 31.2515C239.235 40.2352 246.518 47.5179 255.502 47.5179Z" fill="white"/>
</g>
<defs>
<filter id="filter0_d_4113_1239" x="0" y="0" width="304.702" height="255.882" filterUnits="userSpaceOnUse" color-interpolation-filters="sRGB">
<feFlood flood-opacity="0" result="BackgroundImageFix"/>
<feColorMatrix in="SourceAlpha" type="matrix" values="0 0 0 0 0 0 0 0 0 0 0 0 0 0 0 0 0 0 127 0" result="hardAlpha"/>
<feOffset dy="4"/>
<feGaussianBlur stdDeviation="2"/>
<feComposite in2="hardAlpha" operator="out"/>
<feColorMatrix type="matrix" values="0 0 0 0 0 0 0 0 0 0 0 0 0 0 0 0 0 0 0.25 0"/>
<feBlend mode="normal" in2="BackgroundImageFix" result="effect1_dropShadow_4113_1239"/>
<feBlend mode="normal" in="SourceGraphic" in2="effect1_dropShadow_4113_1239" result="shape"/>
</filter>
</defs>
</svg>
